<svg xmlns="http://www.w3.org/2000/svg" viewBox="0 0 24 24"><defs><style>.cls-1{fill:#ff4ca6;}.cls-2{fill:#fff;}</style></defs><g id="Layer_2" data-name="Layer 2"><g id="ヴァイオリン"><rect class="cls-1" width="24" height="24" rx="2"/><path class="cls-2" d="M14.68,10l-2.81,4.63-3-1.82,2.75-4.54a5.32,5.32,0,0,0-5.5,2.44l1,.58L5.65,13.89l-1-.59L3.56,15.14A4,4,0,0,0,5,20.61L7.36,22a4,4,0,0,0,5.47-1.47l1-1.77-1-.59,1.51-2.62,1,.58A5.34,5.34,0,0,0,14.68,10ZM7,20.87l-1.29-.75,1-3.24,2.6,1.5Z"/><polygon class="cls-2" points="22.28 12.21 15.6 7.05 18.19 2.77 16.48 1.74 14 5.82 10.56 3.17 9.95 3.96 13.48 6.68 9.91 12.57 11.62 13.61 15.07 7.91 21.67 13 22.28 12.21"/></g></g></svg>